<?xml version="1.0" encoding="UTF-8"?>
<!DOCTYPE svg PUBLIC "-//W3C//DTD SVG 1.1//EN" "http://www.w3.org/Graphics/SVG/1.1/DTD/svg11.dtd">
<!-- Creator: CorelDRAW X7 -->
<svg xmlns="http://www.w3.org/2000/svg" xml:space="preserve" width="2.67361in" height="0.336874in" version="1.1" style="shape-rendering:geometricPrecision; text-rendering:geometricPrecision; image-rendering:optimizeQuality; fill-rule:evenodd; clip-rule:evenodd"
viewBox="0 0 267361 33687"
 xmlns:xlink="http://www.w3.org/1999/xlink">
 <defs>
  <style type="text/css">
   <![CDATA[
    .str0 {stroke:#FEFEFE;stroke-width:694.094}
    .fil3 {fill:#FEFEFE}
    .fil0 {fill:#0096DC}
    .fil2 {fill:#5AC8DF}
    .fil1 {fill:#6FBCD8}
    .fil4 {fill:#FEFEFE;fill-rule:nonzero}
   ]]>
  </style>
 </defs>
 <g id="Layer_x0020_1">
  <metadata id="CorelCorpID_0Corel-Layer"/>
  <path class="fil0 str0" d="M172029 348l94984 0 0 29028c-15065,3121 -45484,3962 -45484,3962 -9662,-4625 -19563,-8458 -29681,-11568 -4330,-5870 -10562,-12802 -19819,-21422z"/>
  <path class="fil1 str0" d="M221529 33338c-19137,-1194 -47248,-5062 -112196,-9300 -38028,-2481 -85546,2325 -108986,4770 80822,-22086 156335,-26515 221182,4530z"/>
  <path class="fil2 str0" d="M347 28808l0 -28461 171682 0c9257,8620 15489,15552 19819,21423 -57789,-17759 -122722,-11757 -191501,7038z"/>
  <g id="_892418864">
   <g>
    <path class="fil3" d="M235033 17633l1615 0 18699 0c1049,0 1905,-855 1905,-1905l0 -21c0,-1050 -856,-1905 -1905,-1905l-8633 0c-279,0 -507,-230 -507,-508l0 -218c0,-280 228,-509 507,-509l6617 0 0 -1015 -6617 0c-839,0 -1523,683 -1523,1524l0 218c0,839 684,1523 1523,1523l8633 0c489,0 889,400 889,890l0 21c0,489 -400,889 -889,889l-20314 0c-1075,0 -2029,343 -2831,1016l2831 0z"/>
    <path class="fil3" d="M238348 13993c328,0 595,266 595,595 0,329 -267,595 -595,595 -329,0 -596,-266 -596,-595 0,-329 267,-595 596,-595z"/>
    <path class="fil3" d="M235837 12506l5170 0c1075,0 2029,-343 2831,-1016l-2831 0 -1615 0 -3555 0 -116 0 -688 0c-1009,0 -1911,302 -2681,895 -1404,1082 -2819,2601 -4125,3838 -507,480 -1297,474 -1809,0l-3458 -3199c-950,-879 -2410,-879 -3360,0l-3457 3199c-513,474 -1297,474 -1810,0l-3457 -3199c-950,-879 -2410,-879 -3360,0l-3457 3199c-513,474 -1298,474 -1810,0l-5113 -4731 -831 787 0 0 5169 4782c950,879 2410,879 3360,0l3457 -3198c513,-475 1297,-475 1810,0l3457 3198c950,879 2410,879 3360,0l3458 -3198c512,-475 1296,-475 1809,0l3457 3198c950,879 2421,890 3360,0 1258,-1191 2428,-2382 3616,-3561 62,-61 124,-119 188,-174 630,-548 1369,-820 2227,-820l688 0 116 0z"/>
    <path class="fil3" d="M221257 16477c329,0 596,267 596,596 0,329 -267,596 -596,596 -329,0 -595,-267 -595,-596 0,-329 266,-596 595,-596z"/>
   </g>
   <path class="fil4" d="M216877 22124l0 -2740 340 0 0 2425 1790 0 0 315 -2130 0zm4240 0l0 -2755 346 0 0 2755 -346 0zm3340 0l0 -2425 -1154 0 0 -315 2649 0 0 315 -1154 0 0 2425 -341 0zm3335 0l0 -2740 2156 0 0 315 -1815 0 0 803 1098 0 0 316 -1098 0 0 991 1927 0 0 315 -2268 0zm8347 -874l275 203c-125,238 -298,422 -517,550 -218,128 -466,193 -745,193 -410,0 -749,-136 -1017,-406 -266,-271 -400,-614 -400,-1030 0,-417 134,-761 401,-1031 269,-270 607,-406 1015,-406 254,0 485,55 693,166 209,111 378,270 509,475l-286 203c-85,-163 -210,-292 -372,-385 -162,-92 -343,-139 -543,-139 -308,0 -563,106 -764,317 -202,211 -303,478 -303,800 0,323 101,590 303,800 201,210 456,315 764,315 215,0 406,-53 573,-159 167,-106 305,-261 414,-466zm2578 874l0 -2740 340 0 0 2425 1790 0 0 315 -2130 0zm4240 0l0 -2755 346 0 0 2755 -346 0zm2862 0l0 -2740 2156 0 0 315 -1815 0 0 803 1098 0 0 316 -1098 0 0 991 1927 0 0 315 -2268 0zm4468 0l0 -2740 179 0 1779 2048 0 -2048 340 0 0 2740 -173 0 -1784 -2048 0 2048 -341 0zm5287 0l0 -2425 -1154 0 0 -315 2649 0 0 315 -1154 0 0 2425 -341 0z"/>
  </g>
 </g>
</svg>
